<svg width="128" height="128" viewBox="0 0 128 128" xmlns="http://www.w3.org/2000/svg">
  <defs>
    <linearGradient id="grad1" x1="0%" y1="0%" x2="100%" y2="100%">
      <stop offset="0%" style="stop-color:#6366f1;stop-opacity:1" />
      <stop offset="100%" style="stop-color:#8b5cf6;stop-opacity:1" />
    </linearGradient>
  </defs>
  
  <!-- Background circle -->
  <circle cx="64" cy="64" r="60" fill="url(#grad1)" stroke="#1e1e1e" stroke-width="2"/>
  
  <!-- AI Brain/Neural Network -->
  <g fill="white" opacity="0.9">
    <!-- Central node -->
    <circle cx="64" cy="64" r="8"/>
    
    <!-- Neural connections -->
    <line x1="64" y1="56" x2="64" y2="40" stroke="white" stroke-width="2" opacity="0.7"/>
    <line x1="64" y1="72" x2="64" y2="88" stroke="white" stroke-width="2" opacity="0.7"/>
    <line x1="56" y1="64" x2="40" y2="64" stroke="white" stroke-width="2" opacity="0.7"/>
    <line x1="72" y1="64" x2="88" y2="64" stroke="white" stroke-width="2" opacity="0.7"/>
    
    <!-- Diagonal connections -->
    <line x1="56" y1="56" x2="40" y2="40" stroke="white" stroke-width="1.5" opacity="0.5"/>
    <line x1="72" y1="72" x2="88" y2="88" stroke="white" stroke-width="1.5" opacity="0.5"/>
    <line x1="56" y1="72" x2="40" y2="88" stroke="white" stroke-width="1.5" opacity="0.5"/>
    <line x1="72" y1="56" x2="88" y2="40" stroke="white" stroke-width="1.5" opacity="0.5"/>
    
    <!-- Outer nodes -->
    <circle cx="64" cy="40" r="4"/>
    <circle cx="64" cy="88" r="4"/>
    <circle cx="40" cy="64" r="4"/>
    <circle cx="88" cy="64" r="4"/>
    <circle cx="40" cy="40" r="3"/>
    <circle cx="88" cy="88" r="3"/>
    <circle cx="40" cy="88" r="3"/>
    <circle cx="88" cy="40" r="3"/>
  </g>
  
  <!-- Cost optimization symbol (dollar sign) -->
  <g fill="white" opacity="0.8">
    <path d="M 64 100 L 64 110 M 60 105 L 68 105 M 60 103 L 68 103" stroke="white" stroke-width="2" fill="none"/>
  </g>
</svg> 